<svg xmlns="http://www.w3.org/2000/svg" viewBox="0 0 1800 1450">
<style>
  path { fill: #000; }
  @media (prefers-color-scheme: dark) {
    path { fill: #fff; }
  }
</style>
<g transform="translate(0,1450) scale(1,-1)">
<path d="M65 1429 c-9 -26 4 -140 17 -157 9 -10 73 -11 304 -6 l293 7 6 -24 c3 -13 4 -107 3 -209 l-3 -185 -244 3 c-190 2 -246 0 -253 -10 -15 -24 -9 -154 7 -168 11 -9 72 -12 237 -10 123 2 231 2 241 1 16 -1 17 -19 17 -228 0 -126 -4 -234 -9 -242 -8 -12 -65 -13 -343 -10 l-333 4 -3 -77 c-5 -128 -42 -119 469 -116 341 2 431 6 438 16 4 7 6 157 3 333 l-5 319 34 0 c102 0 285 -195 528 -557 74 -112 76 -113 196 -113 96 0 135 10 135 33 0 51 -403 570 -559 720 -50 48 -91 90 -91 93 0 3 109 114 243 247 133 133 255 261 271 284 45 67 36 73 -103 73 l-119 0 -22 -36 c-57 -91 -398 -485 -457 -527 -20 -14 -41 -23 -46 -20 -5 3 -8 117 -7 277 1 149 2 279 1 289 -1 16 -28 17 -420 17 -416 0 -420 0 -426 -21z"/>
</g>
</svg>
